Coordinates
version=1
nRows=18
nColumns=34
inDegrees=no

Units are S.I. units (second, meters, Newtons, ...)
If the header above contains a line with 'inDegrees', this indicates whether rotational values are in degrees (yes) or radians (no).

endheader
time	pelvis_tilt	pelvis_list	pelvis_rotation	pelvis_tx	pelvis_ty	pelvis_tz	hip_flexion_r	hip_adduction_r	hip_rotation_r	knee_angle_r	ankle_angle_r	subtalar_angle_r	mtp_angle_r	hip_flexion_l	hip_adduction_l	hip_rotation_l	knee_angle_l	ankle_angle_l	subtalar_angle_l	mtp_angle_l	lumbar_extension	lumbar_bending	lumbar_rotation	arm_flex_r	arm_add_r	arm_rot_r	elbow_flex_r	pro_sup_r	arm_flex_l	arm_add_l	arm_rot_l	elbow_flex_l	pro_sup_l
0.85	-0.161419	0.283921	0.0650262	0.752989	0.910729	-0.210103	-0.199967	-0.302803	-0.368312	0.505338	0.166807	0.147238	-0.0996517	0.434473	0.313307	0.0322245	0.166022	-0.00591749	-0.034255	-0.0975301	-0.0294159	-0.463127	0.0692204	-0.162816	-0.0704337	-0.000290048	0.59293	1.67888	-0.180353	-0.215402	-0.439166	0.447499	1.69387
0.86	-0.172878	0.283695	0.0656719	0.763122	0.911517	-0.21019	-0.166497	-0.30701	-0.335297	0.550044	0.118699	0.0953662	-0.0996682	0.435395	0.31423	0.0380869	0.167515	0.00237243	-0.0422731	-0.0975273	-0.0178585	-0.468961	0.0774951	-0.169788	-0.0757094	0.0118041	0.603705	1.68352	-0.175576	-0.215151	-0.445383	0.454119	1.69282
0.87	-0.184856	0.282169	0.0654008	0.772987	0.912206	-0.210269	-0.12904	-0.310332	-0.302258	0.59816	0.0696132	0.0450644	-0.0996846	0.437216	0.313251	0.0417436	0.168775	0.0113149	-0.0470151	-0.0975244	-0.00540899	-0.472674	0.0863513	-0.176288	-0.0817154	0.0225126	0.615288	1.68723	-0.170664	-0.214021	-0.45166	0.462049	1.69243
0.88	-0.196948	0.279898	0.0644782	0.782599	0.912812	-0.210344	-0.0886795	-0.313117	-0.270132	0.648821	0.0207259	-0.00320443	-0.0997011	0.439513	0.311008	0.0433916	0.169991	0.0209179	-0.0487006	-0.0975216	0.00723525	-0.474905	0.0950538	-0.182083	-0.0879977	0.0311749	0.627179	1.69011	-0.165816	-0.21222	-0.457929	0.471298	1.69266
0.89	-0.208691	0.277415	0.0631637	0.791974	0.913354	-0.210423	-0.0465842	-0.31576	-0.239758	0.701081	-0.0265628	-0.0491984	-0.0997176	0.441664	0.308175	0.0435553	0.171061	0.031014	-0.0479271	-0.0975187	0.0193389	-0.47627	0.10292	-0.186973	-0.094141	0.0372916	0.638895	1.69221	-0.161186	-0.209991	-0.463913	0.481854	1.69339
0.9	-0.219622	0.275189	0.0616759	0.801132	0.913856	-0.210516	-0.00388866	-0.318659	-0.2118	0.753973	-0.070757	-0.0928689	-0.099734	0.442923	0.305391	0.0429707	0.171646	0.0412851	-0.0455502	-0.0975159	0.0302039	-0.477316	0.109391	-0.190803	-0.0998026	0.0405775	0.650009	1.6936	-0.156875	-0.207601	-0.469153	0.493676	1.6944
0.91	-0.229323	0.27358	0.0601699	0.810104	0.914344	-0.210626	0.0384263	-0.322163	-0.186661	0.80658	-0.110426	-0.134307	-0.0997505	0.442548	0.303193	0.0424361	0.171278	0.0513356	-0.04252	-0.097513	0.0392419	-0.47847	0.114075	-0.193465	-0.104734	0.0409874	0.660186	1.69427	-0.152916	-0.205321	-0.473076	0.506699	1.69545
0.92	-0.237483	0.272815	0.0587265	0.818918	0.914841	-0.21075	0.0796447	-0.326496	-0.164425	0.858088	-0.144361	-0.173666	-0.099767	0.439947	0.301946	0.0426497	0.169508	0.0607932	-0.0396986	-0.0975101	0.0460426	-0.480006	0.116767	-0.194891	-0.108788	0.0387074	0.669196	1.69422	-0.149277	-0.203404	-0.475105	0.520816	1.69624
0.93	-0.243934	0.272978	0.0573552	0.827578	0.91533	-0.210887	0.119372	-0.331705	-0.144854	0.907814	-0.171682	-0.211024	-0.0997834	0.434773	0.301807	0.0441108	0.166031	0.0693785	-0.0377589	-0.0975073	0.0504047	-0.482028	0.117444	-0.195063	-0.111912	0.0341156	0.676918	1.69342	-0.145863	-0.202068	-0.474753	0.535876	1.69653
0.94	-0.248671	0.273993	0.0560061	0.836098	0.91583	-0.211025	0.157541	-0.337626	-0.127418	0.955221	-0.191873	-0.246264	-0.0997999	0.426987	0.302727	0.0470533	0.160773	0.0769622	-0.0371074	-0.0975044	0.0523397	-0.484474	0.116244	-0.194004	-0.114135	0.0277225	0.683343	1.69189	-0.142519	-0.20148	-0.471715	0.551666	1.69616
0.95	-0.251821	0.275658	0.0545936	0.844478	0.916346	-0.211151	0.194354	-0.343891	-0.11138	0.999901	-0.204734	-0.27896	-0.0998164	0.416847	0.304474	0.0514441	0.153922	0.0835768	-0.0378797	-0.0975015	0.0520424	-0.487152	0.113424	-0.191789	-0.115546	0.0201013	0.688555	1.68965	-0.139056	-0.201741	-0.465912	0.567918	1.69513
0.96	-0.253607	0.277689	0.0530169	0.852711	0.916877	-0.211252	0.230185	-0.349979	-0.0959115	1.04155	-0.210264	-0.308316	-0.0998328	0.404837	0.306699	0.057025	0.145895	0.0893945	-0.0399782	-0.0974987	0.0498364	-0.48978	0.109317	-0.188538	-0.116275	0.0118183	0.692716	1.68681	-0.135262	-0.202888	-0.45751	0.584319	1.69365
0.97	-0.2543	0.279767	0.0511784	0.860786	0.917413	-0.211313	0.265478	-0.355282	-0.0802038	1.07996	-0.208539	-0.333209	-0.0998493	0.391572	0.308999	0.0633871	0.137256	0.0946768	-0.0431463	-0.0974958	0.0461141	-0.492044	0.104288	-0.184421	-0.116474	0.00337688	0.696039	1.68348	-0.130933	-0.204891	-0.446891	0.600537	1.69215
0.98	-0.25418	0.281595	0.048994	0.868695	0.917944	-0.211323	0.300638	-0.359196	-0.0635701	1.11494	-0.199631	-0.35234	-0.0998658	0.377689	0.310993	0.070072	0.128613	0.0997004	-0.0470757	-0.0974929	0.0412826	-0.493647	0.0987011	-0.179642	-0.116297	-0.00482124	0.698763	1.67982	-0.125897	-0.207665	-0.434599	0.616262	1.69119
0.99	-0.253499	0.282938	0.046397	0.876432	0.918458	-0.211275	0.335964	-0.361199	-0.0455193	1.14637	-0.183615	-0.364462	-0.0998822	0.363739	0.312382	0.07669	0.120492	0.10467	-0.0515405	-0.0974901	0.0357209	-0.494354	0.0928883	-0.174433	-0.115895	-0.012496	0.701133	1.67588	-0.120034	-0.211083	-0.421253	0.63124	1.69127
1	-0.252462	0.283649	0.0433353	0.884001	0.918945	-0.211162	0.371596	-0.360918	-0.0257983	1.17409	-0.160639	-0.368625	-0.0998987	0.350114	0.31298	0.0829762	0.113261	0.10968	-0.0564371	-0.0974872	0.0297485	-0.494017	0.0871386	-0.16903	-0.115401	-0.019492	0.703375	1.67165	-0.11329	-0.214989	-0.40748	0.645294	1.69272
1.01	-0.251203	0.283671	0.0397671	0.891416	0.919407	-0.210982	0.4075	-0.358167	-0.00440384	1.19796	-0.131051	-0.364396	-0.0999152	0.337016	0.312726	0.0887799	0.107088	0.114735	-0.06173	-0.0974843	0.0236064	-0.492585	0.0816846	-0.163656	-0.11493	-0.0257633	0.705666	1.66712	-0.105674	-0.219212	-0.393869	0.658314	1.69575
1.02	-0.24978	0.283027	0.0356584	0.898704	0.919846	-0.210737	0.443475	-0.352953	0.0184354	1.2178	-0.0955414	-0.352017	-0.0999316	0.32445	0.311662	0.0940433	0.101946	0.119773	-0.0674012	-0.0974814	0.0174526	-0.490087	0.0767002	-0.1585	-0.114578	-0.0313479	0.708119	1.66234	-0.0972578	-0.223581	-0.380926	0.670248	1.70036
